/* XPM */
static char * milk_xpm[] = {
"16 16 8 1",
" 	c None",
".	c #F3F4E7",
"+	c #555793",
"@	c #4C468B",
"#	c #8599C7",
"$	c #7180B1",
"%	c #DCE0D2",
"&	c #5F699C",
"                ",
"     ......     ",
"    .+++++@.    ",
"   .+####$$@.   ",
"    .@@@@@@.    ",
"   .#.....%#.   ",
"   .#.....%#.   ",
"   .#.....%#.   ",
"  .#......%%$.  ",
"  .#......%%$.  ",
"  .$......%%&.  ",
"  .$......%%&.  ",
"  .$.....%%%&.  ",
"  .&..%%%%%%&.  ",
"   .&&&&&&&&.   ",
"    ........    "};
