/* XPM */
static char *fbb863e1dbba461ff865a4df05f173248CEasJcxaM62r2OT[] = {
/* columns rows colors chars-per-pixel */
"64 64 14 1 ",
"  c #78A158",
". c #A4C263",
"X c #C0D470",
"o c #555793",
"O c #4C468B",
"+ c #8599C7",
"@ c #7180B1",
"# c #F3F4E7",
"$ c #DCE0D2",
"% c #DEE3E1",
"& c #5F699C",
"* c #E1E3DE",
"= c #BBD16E",
"- c #BDD26E",
/* pixels */
"                                                                ",
"             ............    .......   ............             ",
"             ............    .......   ............             ",
"      ...................................................       ",
"    ................XX..........X........XXXXXX.............    ",
"    ................XX..........X........XXXXXX.............    ",
"   .........X..XXXXXXXXXXX..XXX.XXX.XXXXXXXXXXX.X...........    ",
"    ......XXXXXX.XXXXXX..XXXXXXXXXXXXXX..XXXXXXXXXXX..X.....    ",
"    ......XXXXXX.XXXXXX..XXXXXXXXXXXXXX..XXXXXXXXXXX..X.....    ",
"    .....XXXXXXXXXXXXXXXXXXXXXXXX..XXXXXXXXXXXXXXXXXXXXXX....   ",
"   ....XXXXXXXXXXXXXXXXXXXXXXXXXXXXXXXXXXXXXXXXXXXXXXXXXXX...   ",
"   ....XXXXXXXXXXXXXXXXXXXXXXXXXXXXXXXXXXXXXXXXXXXXXXXXXXX...   ",
"   ......XXXXXXXXXXXXXXXXXXXXXXXXXXXXXXXXXXXXXX.XXXXXXXXXX..... ",
" .....XXXXXXXXXXXXXXXXXXXXXXXXXXXXXXXXXXXXXXXXXXXXXXXX.XXX..... ",
" .....XXXXXXXXXXXXXXXXXXXXXXXXXXXXXXXXXXXXXXXXXXXXXXXX.XXX..... ",
" .....XXXXXXXXXX.XXXXXXXXXXXXXXXXXXXXXXXXXXXXXXXXXXXXXXXXXXX.   ",
" .....X..XXXXXXXXXXXXXXXXXXXXXXXXXXXXXXXXXXXXXXXXXXXXXXXXX...   ",
" ...XXXXXXXXXXXXXXXXXXXXXXXXXXXXXXXXXXXXXXXXXXXXXXXXXXXXXXXX... ",
" ...XXXXXXXXXXXXXXXXXXXXXXXooooooooooOOXXXXXXXXXXXXXXXXXXXXX... ",
" ...XXXXXXXXXXXXXXXXXXXXXXXooooooooooOOXXXXXXXXXXXXXXXXXXXXX... ",
" .....XXXXXXXXXXXXXXXXXXXoo++++++++@@@@OOXXXXXXXXXXXXXXXXXXX... ",
" .....XXXXXXXXXXXXXXXXXXXoo++++++++@@@@OOXXXXXXXXXXXXXXXXXXX... ",
" ...XXX..XXXXXXXXXXXXXXXXXXOOOOOOOOOOOOXXXXXXXXXXXXXXXXXXXXX... ",
" ...XXXXXXXXXXXXXXXXXXXXXXXOOOOOOOOOOOOXXXXXXXXXXXX.XXXXXX..... ",
" ...XXXXXXXXXXXXXXXXXXXXX++##########$$++XXXXXXXXXX.XXXXXX..... ",
"   ...XXXXXXX..XXXXXXXXXX++##########$$++XXXXXXXXXXXXXXXX....   ",
"   ....XXXXXXXXXXXXXXXXXX++##########$$++XXXXXXXXXXXXXXXXX...   ",
"   ....XXXXXXXXXXXXXXXXXX++##########$$++XXXXXXXXXXXXXXXXX...   ",
"   ...XXXXXXXXXXXXXXXXXXX++##########$$++XXXXXXXXXXXXXXXX....   ",
" .....XXX.XXXXXXXXXXXXXXX++##########$$++XXXXXXXXXXXXXXXX...... ",
" .....XXX.XXXXXXXXXXXXX++%%##########$$$$@@XXXXXXXXXXXXXX...... ",
" ...XXXXXXXXXXXXXXXXXXX++%%##########$$$$@@XXXXXXXXXXXXXXX..... ",
" ...XXXXXXXXXXXXXXXXXXX++############$$$$@@XXXXXXXXXXX.XXX..... ",
" .....XXXXXXXXXXXXXXXXX++############$$$$@@XXXXXXXXXXXXXXX..... ",
" .....XXXXXXXXXXXXXXXXX@@############$$$$&&XXXXXXXXXXXXXXX..... ",
"   ...XXXXXXXXXXXXXXXXX@@############$$$$&&XXXXXXXXXXXXXXX..... ",
"   ...XXXXXXXXXXXXXXXXX@@############$$$$&&XXXXXX..XXXXXX...... ",
"   ...XXXXXXXXXXXXXXXXX@@############$$$$&&XXXXXX..XXXXXX...... ",
" ......XXX..XXXXXXXXXXX@@##########$$$$$$&&XXXXXXXXXXXXXXX...   ",
" .....XXXXXXXXXXXXXXXXX@@##########$$$$$$&&XXXXXXXXXXX.XXXXX.   ",
" .....XXXXXXXXXXXXXXXXX&&**##$$$$$$$$$$$$&&XXXXXXXXXXX.XXXXX.   ",
" ...XXXXXXXXXXXXXXXXXXX&&**##$$$$$$$$$$$$&&XXXXXXXXXXXXXXXXX... ",
" .....XXXXXXXXXXXXXXXXXXX&&&&&&&&&&&&&&&&XXXXXXXXXXXXXXXXXXX... ",
" .....XXXXXXXXXXXXXXXXXXX&&&&&&&&&&&&&&&&XXXXXXXXXXXXXXXXXXX... ",
" ...XXXXXXXXXXXXXXXXXXXXXXXXXXXXXXXXXXXXXXXXXXXXXXXXXXXXXX...   ",
" .....XXXXXXXXXXXXXXXXXXXXXXXXXXXXXXXXXXXXXXXXXXXXXXXXXXXX...   ",
" .....XXXXXXXXXXXXXXXXXXXXXXXXXXXXXXXXXXXXXXXXXXXXXXXXXXXX...   ",
"   ....XXXXXXXXXXXXXXXXXXXXXXXXXXXXXXXXXXXXXXXXXXXX.XXXXX...... ",
"   ...XXXXXX.XXXXXXXXXXXXXXXXXXXXXXXXXXXXXXXXXXXXXXXXXXXXX..... ",
" ......XXXXXXXXXXXXXXXXXXXXXXXXXXXXXXXXXXXXXXXXXXXXXXXXXX...... ",
" ......XXXXXXXXXXXXXXXXXXXXXXXXXXXXXXXXXXXXXXXXXXXXXXXXXX...... ",
" .....XXXXXXXXXX.XXXXXXXXXXXXXXXXXXXXXXXXXXXXXXXXXXXXXXXXX...   ",
"   ...XXXXXXXXXXXXXXXXX..XXXXXXXXXXXXX.XXXXXXXXXXXXXXXXXXX...   ",
"   ...XXXXXXXXXXXXXXXXX..XXXXXXXXXXXXX.XXXXXXXXXXXXXXXXXXX...   ",
"   ......XXXXXXXXXXXXXXXXXXXXXXXXXXXXXXXXXXXXXXX.XXX..XXX....   ",
"   ....XXXXX=..XXXXXXXXXXXXXX..XXXXXXXXXXXXXXXXXXXXXXXXXX...    ",
"   ....XXXXX=..XXXXXXXXXXXXXX..XXXXXXXXXXXXXXXXXXXXXXXXXX...    ",
"    .....XXX.--XXXXXXXXXX.XXXXXXXXX.XXX..XXXXXXXXXXXXXX.....    ",
"    ............X..XXXX......XXXX.........XXXXX.XXX.........    ",
"    ............X..XXXX......XXXX.........XXXXX.XXX.........    ",
"      ....................................................      ",
"             ..  ......     .......    ........  ...            ",
"             ..  ......     .......    ........  ...            ",
"                                                                "
};
