/* XPM */
static char *_b0086fbe0204368ed05fea98246fa7ci3crECfqI1Diylo4[] = {
/* columns rows colors chars-per-pixel */
"64 64 14 1 ",
"  c #78A158",
". c #A4C263",
"X c #C0D470",
"o c #90625D",
"O c #D4C169",
"+ c #EAE178",
"@ c #C49A6C",
"# c #DCB98A",
"$ c #F4F4A0",
"% c #B09643",
"& c #BFA954",
"* c #AA7959",
"= c #BBD16E",
"- c #BDD26E",
/* pixels */
"                                                                ",
"             ............    .......   ............             ",
"             ............    .......   ............             ",
"      ...................................................       ",
"    ................XX..........X........XXXXXX.............    ",
"    ................XX..........X........XXXXXX.............    ",
"   .........X..XXXXXXXXXXX..XXX.XXX.XXXXXXXXXXX.X...........    ",
"    ......XXXXXX.XXXXXX..XXXXXXXXXXXXXX..XXXXXXXXXXX..X.....    ",
"    ......XXXXXX.XXXXXX..XXXXXXXXXXXXXX..XXXXXXXXXXX..X.....    ",
"    .....XXXXXXXXXXXXXXXXXXXXXXXX..XXXXXXXXXXXXXXXXXXXXXX....   ",
"   ....XXXXXXXXXXXXXXXXXXXXXXXXXXXXXXXXXXXXXXXXXXXXXXXXXXX...   ",
"   ....XXXXXXXXXXXXXXXXXXXXXXXXXXXXXXXXXXXXXXXXXXXXXXXXXXX...   ",
"   ......XXXXXXXXXXXXXXXXXXXXXXXXXXXXXXXXXXXXXX.XXXXXXXXXX..... ",
" .....XXXXXXXXXXXXXXXXXXXXXXXXXXXXXXXXXXXXXXXXXXXXXXXX.XXX..... ",
" .....XXXXXXXXXXXXXXXXXXXXXXXXXXXXXXXXXXXXXXXXXXXXXXXX.XXX..... ",
" .....XXXXXXXXXX.XXXXXXXXXXXXXXXXXXXXXXXXXXXXXXXXXXXXXXXXXXX.   ",
" .....X..XXXXXXXXXXXooooXXXXXXXXXXXXXXXXooooXXXXXXXXXXXXXX...   ",
" ...XXXXXXXXXXXXXXXXooooXXXXXXXXXXXXXXXXooooXXXXXXXXXXXXXXXX... ",
" ...XXXXXXXXXXXXXXooOOOOooooooooooooooooOOOOooXXXXXXXXXXXXXX... ",
" ...XXXXXXXXXXXXXXooOOOOooooooooooooooooOOOOooXXXXXXXXXXXXXX... ",
" .....XXXXXXXXXXoo++++++@@############@@++++++ooXXXXXXXXXXXX... ",
" .....XXXXXXXXXXoo++++++@@############@@++++++ooXXXXXXXXXXXX... ",
" ...XXX..XXXXXXXoo++++@@@@@@########@@@@@@++++ooXXXXXXXXXXXX... ",
" ...XXXXXXXXXXXXoo++++@@@@@@########@@@@@@++++ooXXX.XXXXXX..... ",
" ...XXXXXXXXXXXXoo++++@@@@@@@@@@@@@@@@@@@@++++ooXXX.XXXXXX..... ",
"   ...XXXXXXX..Xoo++++@@@@@@@@@@@@@@@@@@@@++++ooXXXXXXXXX....   ",
"   ....XXXXXXXXXoo++++@@@@@@@@@@@@@@@@@@@@++++ooXXXXXXXXXX...   ",
"   ....XXXXXXXXXoo++++@@@@@@@@@@@@@@@@@@@@++++ooXXXXXXXXXX...   ",
"   ...XXXXXXXXXXoo$$++++++++++++++++++++++++$$ooXXXXXXXXX....   ",
" .....XXX.XXXXXXoo$$++++++++++++++++++++++++$$ooXXXXXXXXX...... ",
" .....XXX.XXXXXXoo%%$$$$$$$$$$$$$$$$$$$$$$$$%%ooXXXXXXXXX...... ",
" ...XXXXXXXXXXXXoo%%$$$$$$$$$$$$$$$$$$$$$$$$%%ooXXXXXXXXXX..... ",
" ...XXXXXXXXXXXXoo&&%%oooooooo++OOoooooooo%%&&ooXXXXXX.XXX..... ",
" .....XXXXXXXXXXoo&&%%oooooooo++OOoooooooo%%&&ooXXXXXXXXXX..... ",
" .....XXXXXXXXXXoo&&&&********OOOO********&&&&ooXXXXXXXXXX..... ",
"   ...XXXXXXXXXXoo&&&&********OOOO********&&&&ooXXXXXXXXXX..... ",
"   ...XXXXXXXXXXooOO&&********************&&OOooX..XXXXXX...... ",
"   ...XXXXXXXXXXooOO&&********************&&OOooX..XXXXXX...... ",
" ......XXX..XXXXooOOOO********************OOOOooXXXXXXXXXX...   ",
" .....XXXXXXXXXXooOOOO********************OOOOooXXXXXX.XXXXX.   ",
" .....XXXXXXXXXXXXooOOOOOOOOOOOOOOOOOOOOOOOOooXXXXXXXX.XXXXX.   ",
" ...XXXXXXXXXXXXXXooOOOOOOOOOOOOOOOOOOOOOOOOooXXXXXXXXXXXXXX... ",
" .....XXXXXXXXXXXXXXooooooooooooooooooooooooXXXXXXXXXXXXXXXX... ",
" .....XXXXXXXXXXXXXXooooooooooooooooooooooooXXXXXXXXXXXXXXXX... ",
" ...XXXXXXXXXXXXXXXXXXXXXXXXXXXXXXXXXXXXXXXXXXXXXXXXXXXXXX...   ",
" .....XXXXXXXXXXXXXXXXXXXXXXXXXXXXXXXXXXXXXXXXXXXXXXXXXXXX...   ",
" .....XXXXXXXXXXXXXXXXXXXXXXXXXXXXXXXXXXXXXXXXXXXXXXXXXXXX...   ",
"   ....XXXXXXXXXXXXXXXXXXXXXXXXXXXXXXXXXXXXXXXXXXXX.XXXXX...... ",
"   ...XXXXXX.XXXXXXXXXXXXXXXXXXXXXXXXXXXXXXXXXXXXXXXXXXXXX..... ",
" ......XXXXXXXXXXXXXXXXXXXXXXXXXXXXXXXXXXXXXXXXXXXXXXXXXX...... ",
" ......XXXXXXXXXXXXXXXXXXXXXXXXXXXXXXXXXXXXXXXXXXXXXXXXXX...... ",
" .....XXXXXXXXXX.XXXXXXXXXXXXXXXXXXXXXXXXXXXXXXXXXXXXXXXXX...   ",
"   ...XXXXXXXXXXXXXXXXX..XXXXXXXXXXXXX.XXXXXXXXXXXXXXXXXXX...   ",
"   ...XXXXXXXXXXXXXXXXX..XXXXXXXXXXXXX.XXXXXXXXXXXXXXXXXXX...   ",
"   ......XXXXXXXXXXXXXXXXXXXXXXXXXXXXXXXXXXXXXXX.XXX..XXX....   ",
"   ....XXXXX=..XXXXXXXXXXXXXX..XXXXXXXXXXXXXXXXXXXXXXXXXX...    ",
"   ....XXXXX=..XXXXXXXXXXXXXX..XXXXXXXXXXXXXXXXXXXXXXXXXX...    ",
"    .....XXX.--XXXXXXXXXX.XXXXXXXXX.XXX..XXXXXXXXXXXXXX.....    ",
"    ............X..XXXX......XXXX.........XXXXX.XXX.........    ",
"    ............X..XXXX......XXXX.........XXXXX.XXX.........    ",
"      ....................................................      ",
"             ..  ......     .......    ........  ...            ",
"             ..  ......     .......    ........  ...            ",
"                                                                "
};
