/* XPM */
static char * Exit_closed_xpm[] = {
"48 49 10 1",
" 	c None",
".	c #90625D",
"+	c #D4C169",
"@	c #EAE178",
"#	c #C49A6C",
"$	c #DCB98A",
"%	c #F4F4A0",
"&	c #B09643",
"*	c #BFA954",
"=	c #AA7959",
"                                                ",
"                                                ",
"                                                ",
"                                                ",
"                                                ",
"                                                ",
"                                                ",
"                                                ",
"                                                ",
"                                                ",
"                                                ",
"                                                ",
"                                                ",
"                                                ",
"                                                ",
"                                                ",
"                                                ",
"                                                ",
"                  ..        ..                  ",
"                 .++........++.                 ",
"                .@@@#$$$$$$#@@@.                ",
"                .@@###$$$$###@@.                ",
"                .@@##########@@.                ",
"                .@@##########@@.                ",
"                .%@@@@@@@@@@@@%.                ",
"                .&%%%%%%%%%%%%&.                ",
"                .*&....@+....&*.                ",
"                .**====++====**.                ",
"                .+*==========*+.                ",
"                .++==========++.                ",
"                 .++++++++++++.                 ",
"                  ............                  ",
"                                                ",
"                                                ",
"                                                ",
"                                                ",
"                                                ",
"                                                ",
"                                                ",
"                                                ",
"                                                ",
"                                                ",
"                                                ",
"                                                ",
"                                                ",
"                                                ",
"                                                ",
"                                                ",
"                                                "};
