/* XPM */
static char *e4be4354e4de41cdad4415e5358a4883aCJgK0xwZDo57L79[] = {
/* columns rows colors chars-per-pixel */
"64 64 13 1 ",
"  c #78A158",
". c #A4C263",
"X c #C0D470",
"o c #90625D",
"O c #D4C169",
"+ c #F4F4A0",
"@ c #EAE178",
"# c #B09643",
"$ c #6B4B5B",
"% c #BFA954",
"& c #AA7959",
"* c #BBD16E",
"= c #BDD26E",
/* pixels */
"                                                                ",
"             ............    .......   ............             ",
"             ............    .......   ............             ",
"      ...................................................       ",
"    ................XX..........X........XXXXXX.............    ",
"    ................XX..........X........XXXXXX.............    ",
"   .........X..XXXXXXXXXXX..XXX.XXX.XXXXXXXXXXX.X...........    ",
"    ......XXXXXX.XXXXXX..XXXXXXXXXXXXXX..XXXXXXXXXXX..X.....    ",
"    ......XXXXXX.XXXXXX..XXXXXXXXXXXXXX..XXXXXXXXXXX..X.....    ",
"    .....XXXXXXXXXXXXXXXXXXXXXXXX..XXXXXXXXXXXXXXXXXXXXXX....   ",
"   ....XXXXXXXXXXXXXXXXXXXXXXXXXXXXXXXXXXXXXXXXXXXXXXXXXXX...   ",
"   ....XXXXXXXXXXXXXXXXXXXXXXXXXXXXXXXXXXXXXXXXXXXXXXXXXXX...   ",
"   ......XXXXXXXXXXXXXXXXXXXXXXXXXXXXXXXXXXXXXX.XXXXXXXXXX..... ",
" .....XXXXXXXXXXXXXXXXXXXXXXXXXXXXXXXXXXXXXXXXXXXXXXXX.XXX..... ",
" .....XXXXXXXXXXXXXXXXXXXXXXXXXXXXXXXXXXXXXXXXXXXXXXXX.XXX..... ",
" .....XXXXXXXXXX.XXXXXXXXXXXXXXXXXXXXXXXXXXXXXXXXXXXXXXXXXXX.   ",
" .....X..XXXXXXXXXXXooooXXXXXXXXXXXXXXXXooooXXXXXXXXXXXXXX...   ",
" ...XXXXXXXXXXXXXXXXooooXXXXXXXXXXXXXXXXooooXXXXXXXXXXXXXXXX... ",
" ...XXXXXXXXXXXXXXooOOOOooooooooooooooooOOOOooXXXXXXXXXXXXXX... ",
" ...XXXXXXXXXXXXXXooOOOOooooooooooooooooOOOOooXXXXXXXXXXXXXX... ",
" .....XXXXXXXXXXoo++@@@@@@@@@@@@@@@@@@@@@@@@@@ooXXXXXXXXXXXX... ",
" .....XXXXXXXXXXoo++@@@@@@@@@@@@@@@@@@@@@@@@@@ooXXXXXXXXXXXX... ",
" ...XXX..XXXXXXXoo##++++@@@@@@@@OO@@@@@@@@@@##ooXXXXXXXXXXXX... ",
" ...XXXXXXXXXXXXoo##++++@@@@@@@@OO@@@@@@@@@@##ooXXX.XXXXXX..... ",
" ...XXXXXXXXXXXXoo##$$$$$$$$$$OOOO$$$$$$$$$$##ooXXX.XXXXXX..... ",
"   ...XXXXXXX..Xoo##$$$$$$$$$$OOOO$$$$$$$$$$##ooXXXXXXXXX....   ",
"   ....XXXXXXXXXoo##$$$$$$$$$$$$$$$$$$$$$$$$##ooXXXXXXXXXX...   ",
"   ....XXXXXXXXXoo##$$$$$$$$$$$$$$$$$$$$$$$$##ooXXXXXXXXXX...   ",
"   ...XXXXXXXXXXoo##$$$$$$$$$$$$$$$$$$$$$$$$##ooXXXXXXXXX....   ",
" .....XXX.XXXXXXoo##$$$$$$$$$$$$$$$$$$$$$$$$##ooXXXXXXXXX...... ",
" .....XXX.XXXXXXoo####$$$$$$$$$$$$$$$$$$$$####ooXXXXXXXXX...... ",
" ...XXXXXXXXXXXXoo####$$$$$$$$$$$$$$$$$$$$####ooXXXXXXXXXX..... ",
" ...XXXXXXXXXXXXoo%%########################%%ooXXXXXX.XXX..... ",
" .....XXXXXXXXXXoo%%########################%%ooXXXXXXXXXX..... ",
" .....XXXXXXXXXXooOO%%oooooooooooooooooooo%%OOooXXXXXXXXXX..... ",
"   ...XXXXXXXXXXooOO%%oooooooooooooooooooo%%OOooXXXXXXXXXX..... ",
"   ...XXXXXXXXXXooOOOO&&&&&&&&&&&&&&&&&&&&OOOOooX..XXXXXX...... ",
"   ...XXXXXXXXXXooOOOO&&&&&&&&&&&&&&&&&&&&OOOOooX..XXXXXX...... ",
" ......XXX..XXXXooOOOO&&&&&&&&&&&&&&&&&&&&OOOOooXXXXXXXXXX...   ",
" .....XXXXXXXXXXooOOOO&&&&&&&&&&&&&&&&&&&&OOOOooXXXXXX.XXXXX.   ",
" .....XXXXXXXXXXooOOOO&&&&&&&&&&&&&&&&&&&&OOOOooXXXXXX.XXXXX.   ",
" ...XXXXXXXXXXXXooOOOO&&&&&&&&&&&&&&&&&&&&OOOOooXXXXXXXXXXXX... ",
" .....XXXXXXXXXXXXooOOOOOOOOOOOOOOOOOOOOOOOOooXXXXXXXXXXXXXX... ",
" .....XXXXXXXXXXXXooOOOOOOOOOOOOOOOOOOOOOOOOooXXXXXXXXXXXXXX... ",
" ...XXXXXXXXXXXXXXXXooooooooooooooooooooooooXXXXXXXXXXXXXX...   ",
" .....XXXXXXXXXXXXXXooooooooooooooooooooooooXXXXXXXXXXXXXX...   ",
" .....XXXXXXXXXXXXXXXXXXXXXXXXXXXXXXXXXXXXXXXXXXXXXXXXXXXX...   ",
"   ....XXXXXXXXXXXXXXXXXXXXXXXXXXXXXXXXXXXXXXXXXXXX.XXXXX...... ",
"   ...XXXXXX.XXXXXXXXXXXXXXXXXXXXXXXXXXXXXXXXXXXXXXXXXXXXX..... ",
" ......XXXXXXXXXXXXXXXXXXXXXXXXXXXXXXXXXXXXXXXXXXXXXXXXXX...... ",
" ......XXXXXXXXXXXXXXXXXXXXXXXXXXXXXXXXXXXXXXXXXXXXXXXXXX...... ",
" .....XXXXXXXXXX.XXXXXXXXXXXXXXXXXXXXXXXXXXXXXXXXXXXXXXXXX...   ",
"   ...XXXXXXXXXXXXXXXXX..XXXXXXXXXXXXX.XXXXXXXXXXXXXXXXXXX...   ",
"   ...XXXXXXXXXXXXXXXXX..XXXXXXXXXXXXX.XXXXXXXXXXXXXXXXXXX...   ",
"   ......XXXXXXXXXXXXXXXXXXXXXXXXXXXXXXXXXXXXXXX.XXX..XXX....   ",
"   ....XXXXX*..XXXXXXXXXXXXXX..XXXXXXXXXXXXXXXXXXXXXXXXXX...    ",
"   ....XXXXX*..XXXXXXXXXXXXXX..XXXXXXXXXXXXXXXXXXXXXXXXXX...    ",
"    .....XXX.==XXXXXXXXXX.XXXXXXXXX.XXX..XXXXXXXXXXXXXX.....    ",
"    ............X..XXXX......XXXX.........XXXXX.XXX.........    ",
"    ............X..XXXX......XXXX.........XXXXX.XXX.........    ",
"      ....................................................      ",
"             ..  ......     .......    ........  ...            ",
"             ..  ......     .......    ........  ...            ",
"                                                                "
};
