/* XPM */
static char * Exit_open_xpm[] = {
"47 46 8 1",
" 	c None",
".	c #90625D",
"+	c #EAE178",
"@	c #D4C169",
"#	c #AA7959",
"$	c #B09643",
"%	c #6B4B5B",
"&	c #BFA954",
"                                               ",
"                                               ",
"                                               ",
"                                               ",
"                                               ",
"                                               ",
"                                               ",
"                                               ",
"                                               ",
"                                               ",
"                                               ",
"                                               ",
"                 ............                  ",
"                .++++++++++++.                 ",
"               .+@@@@@@@@@@@@+.                ",
"               .@@..........@@.                ",
"               .@...######...@.                ",
"               .@....####....@.                ",
"               .@............@.                ",
"                .@..........@.                 ",
"               .$$%%%%%%%%%%$$.                ",
"               .$%%%%%%%%%%%%$.                ",
"               .$%%%%%%%%%%%%$.                ",
"               .$%%%%%%%%%%%%$.                ",
"               .$$%%%%%%%%%%$$.                ",
"               .&$$$$$$$$$$$$&.                ",
"               .@&..........&@.                ",
"               .@@##########@@.                ",
"               .@@##########@@.                ",
"               .@@##########@@.                ",
"                .@@@@@@@@@@@@.                 ",
"                 ............                  ",
"                                               ",
"                                               ",
"                                               ",
"                                               ",
"                                               ",
"                                               ",
"                                               ",
"                                               ",
"                                               ",
"                                               ",
"                                               ",
"                                               ",
"                                               ",
"                                               "};
