/* XPM */
static char *_9d66206196744afc49b7765354de009ND5Unk9trBUNuwHV[] = {
/* columns rows colors chars-per-pixel */
"64 64 5 1 ",
"  c #78A158",
". c #A4C263",
"X c #BBD16E",
"o c #BDD26E",
"O c #C0D470",
/* pixels */
"                                                                ",
"             ............    .......   ............             ",
"             ............    .......   ............             ",
"      ...................................................       ",
"    ................OO..........O........OOOOOO.............    ",
"    ................OO..........O........OOOOOO.............    ",
"   .........O..OOOOOOOOOOO..OOO.OOO.OOOOOOOOOOO.O...........    ",
"    ......OOOOOO.OOOOOO..OOOOOOOOOOOOOO..OOOOOOOOOOO..O.....    ",
"    ......OOOOOO.OOOOOO..OOOOOOOOOOOOOO..OOOOOOOOOOO..O.....    ",
"    .....OOOOOOOOOOOOOOOOOOOOOOOO..OOOOOOOOOOOOOOOOOOOOOO....   ",
"   ....OOOOOOOOOOOOOOOOOOOOOOOOOOOOOOOOOOOOOOOOOOOOOOOOOOO...   ",
"   ....OOOOOOOOOOOOOOOOOOOOOOOOOOOOOOOOOOOOOOOOOOOOOOOOOOO...   ",
"   ......OOOOOOOOOOOOOOOOOOOOOOOOOOOOOOOOOOOOOO.OOOOOOOOOO..... ",
" .....OOOOOOOOOOOOOOOOOOOOOOOOOOOOOOOOOOOOOOOOOOOOOOOO.OOO..... ",
" .....OOOOOOOOOOOOOOOOOOOOOOOOOOOOOOOOOOOOOOOOOOOOOOOO.OOO..... ",
" .....OOOOOOOOOO.OOOOOOOOOOOOOOOOOOOOOOOOOOOOOOOOOOOOOOOOOOO.   ",
" .....O..OOOOOOOOOOOOOOOOOOOOOOOOOOOOOOOOOOOOOOOOOOOOOOOOO...   ",
" ...OOOOOOOOOOOOOOOOOOOOOOOOOOOOOOOOOOOOOOOOOOOOOOOOOOOOOOOO... ",
" ...OOOOOOOOOOOOOOOOOOOOOOOOOOOOOOOOOOOOOOOOOOOOOOOOOOOOOOOO... ",
" ...OOOOOOOOOOOOOOOOOOOOOOOOOOOOOOOOOOOOOOOOOOOOOOOOOOOOOOOO... ",
" .....OOOOOOOOOOOOOOOOOOOOOOOOOOOOOOOOOOOOOOOOOOOOOOOOOOOOOO... ",
" .....OOOOOOOOOOOOOOOOOOOOOOOOOOOOOOOOOOOOOOOOOOOOOOOOOOOOOO... ",
" ...OOO..OOOOOOOOOOOOOOOOOOOOOOOOOOOOOOOOOOOOOOOOOOOOOOOOOOO... ",
" ...OOOOOOOOOOOOOOOOOOOOOOOOOOOOOOOOOOOOOOOOOOOOOOO.OOOOOO..... ",
" ...OOOOOOOOOOOOOOOOOOOOOOOOOOOOOOOOOOOOOOOOOOOOOOO.OOOOOO..... ",
"   ...OOOOOOO..OOOOOOOOOOOOOOOOOOOOOOOOOOOOOOOOOOOOOOOOOO....   ",
"   ....OOOOOOOOOOOOOOOOOOOOOOOOOOOOOOOOOOOOOOOOOOOOOOOOOOO...   ",
"   ....OOOOOOOOOOOOOOOOOOOOOOOOOOOOOOOOOOOOOOOOOOOOOOOOOOO...   ",
"   ...OOOOOOOOOOOOOOOOOOOOOOOOOOOOOOOOOOOOOOOOOOOOOOOOOOO....   ",
" .....OOO.OOOOOOOOOOOOOOOOOOOOOOOOOOOOOOOOOOOOOOOOOOOOOOO...... ",
" .....OOO.OOOOOOOOOOOOOOOOOOOOOOOOOOOOOOOOOOOOOOOOOOOOOOO...... ",
" ...OOOOOOOOOOOOOOOOOOOOOOOOOOOOOOOOOOOOOOOOOOOOOOOOOOOOOO..... ",
" ...OOOOOOOOOOOOOOOOOOOOOOOOOOOOOOOOOOOOOOOOOOOOOOOOOO.OOO..... ",
" .....OOOOOOOOOOOOOOOOOOOOOOOOOOOOOOOOOOOOOOOOOOOOOOOOOOOO..... ",
" .....OOOOOOOOOOOOOOOOOOOOOOOOOOOOOOOOOOOOOOOOOOOOOOOOOOOO..... ",
"   ...OOOOOOOOOOOOOOOOOOOOOOOOOOOOOOOOOOOOOOOOOOOOOOOOOOOO..... ",
"   ...OOOOOOOOOOOOOOOOOOOOOOOOOOOOOOOOOOOOOOOOOOO..OOOOOO...... ",
"   ...OOOOOOOOOOOOOOOOOOOOOOOOOOOOOOOOOOOOOOOOOOO..OOOOOO...... ",
" ......OOO..OOOOOOOOOOOOOOOOOOOOOOOOOOOOOOOOOOOOOOOOOOOOOO...   ",
" .....OOOOOOOOOOOOOOOOOOOOOOOOOOOOOOOOOOOOOOOOOOOOOOOO.OOOOO.   ",
" .....OOOOOOOOOOOOOOOOOOOOOOOOOOOOOOOOOOOOOOOOOOOOOOOO.OOOOO.   ",
" ...OOOOOOOOOOOOOOOOOOOOOOOOOOOOOOOOOOOOOOOOOOOOOOOOOOOOOOOO... ",
" .....OOOOOOOOOOOOOOOOOOOOOOOOOOOOOOOOOOOOOOOOOOOOOOOOOOOOOO... ",
" .....OOOOOOOOOOOOOOOOOOOOOOOOOOOOOOOOOOOOOOOOOOOOOOOOOOOOOO... ",
" ...OOOOOOOOOOOOOOOOOOOOOOOOOOOOOOOOOOOOOOOOOOOOOOOOOOOOOO...   ",
" .....OOOOOOOOOOOOOOOOOOOOOOOOOOOOOOOOOOOOOOOOOOOOOOOOOOOO...   ",
" .....OOOOOOOOOOOOOOOOOOOOOOOOOOOOOOOOOOOOOOOOOOOOOOOOOOOO...   ",
"   ....OOOOOOOOOOOOOOOOOOOOOOOOOOOOOOOOOOOOOOOOOOOO.OOOOO...... ",
"   ...OOOOOO.OOOOOOOOOOOOOOOOOOOOOOOOOOOOOOOOOOOOOOOOOOOOO..... ",
" ......OOOOOOOOOOOOOOOOOOOOOOOOOOOOOOOOOOOOOOOOOOOOOOOOOO...... ",
" ......OOOOOOOOOOOOOOOOOOOOOOOOOOOOOOOOOOOOOOOOOOOOOOOOOO...... ",
" .....OOOOOOOOOO.OOOOOOOOOOOOOOOOOOOOOOOOOOOOOOOOOOOOOOOOO...   ",
"   ...OOOOOOOOOOOOOOOOO..OOOOOOOOOOOOO.OOOOOOOOOOOOOOOOOOO...   ",
"   ...OOOOOOOOOOOOOOOOO..OOOOOOOOOOOOO.OOOOOOOOOOOOOOOOOOO...   ",
"   ......OOOOOOOOOOOOOOOOOOOOOOOOOOOOOOOOOOOOOOO.OOO..OOO....   ",
"   ....OOOOOX..OOOOOOOOOOOOOO..OOOOOOOOOOOOOOOOOOOOOOOOOO...    ",
"   ....OOOOOX..OOOOOOOOOOOOOO..OOOOOOOOOOOOOOOOOOOOOOOOOO...    ",
"    .....OOO.ooOOOOOOOOOO.OOOOOOOOO.OOO..OOOOOOOOOOOOOO.....    ",
"    ............O..OOOO......OOOO.........OOOOO.OOO.........    ",
"    ............O..OOOO......OOOO.........OOOOO.OOO.........    ",
"      ....................................................      ",
"             ..  ......     .......    ........  ...            ",
"             ..  ......     .......    ........  ...            ",
"                                                                "
};
