/* XPM */
static char *_8529e55c22e4ff0b1deca256b32fe22HHOy19CUv7qLP63U[] = {
/* columns rows colors chars-per-pixel */
"64 64 12 1 ",
"  c #78A158",
". c #A4C263",
"X c #C0D470",
"o c #5C4E92",
"O c #F3F2C0",
"+ c #E8B5AC",
"@ c #DDD5DE",
"# c #F3D8C5",
"$ c #766DAA",
"% c #EAE178",
"& c #BBD16E",
"* c #BDD26E",
/* pixels */
"                                                                ",
"             ............    .......   ............             ",
"             ............    .......   ............             ",
"      ...................................................       ",
"    ................XX..........X........XXXXXX.............    ",
"    ................XX..........X........XXXXXX.............    ",
"   .........X..XXXXXXXXXXX..XXX.XXX.XXXXXXXXXXX.X...........    ",
"    ......XXXXXX.XXXXXX..XXXXXXXXXXXXXX..XXXXXXXXXXX..X.....    ",
"    ......XXXXXX.XXXXXX..XXXXXXXXXXXXXX..XXXXXXXXXXX..X.....    ",
"    .....XXXXXXXXXXXXXXXXXXXXXXXX..XXXXXXXXXXXXXXXXXXXXXX....   ",
"   ....XXXXXXXXXXXXXXXXXXXXXXXXXXXXXXXXXXXXXXXXXXXXXXXXXXX...   ",
"   ....XXXXXXXXXXXXXXXXXXXXXXXXXXXXXXXXXXXXXXXXXXXXXXXXXXX...   ",
"   ......XXXXXXXXXXXXXXXXXXXXXXXXXXXXXXXXXXXXXX.XXXXXXXXXX..... ",
" .....XXXXXXXXXXXXXXXXXXXXXXXXXXXXXXXXXXXXXXXXXXXXXXXX.XXX..... ",
" .....XXXXXXXXXXXXXXXXXXXXXXXXXXXXXXXXXXXXXXXXXXXXXXXX.XXX..... ",
" .....XXXXXXXXXX.XXXXXXXXXXXXXXXXXXXXXXXXXXXXXXXXXXXXXXXXXXX.   ",
" .....X..XXXXXXXXXXXooooooooXXXXXXXXXXooooooXXXXXXXXXXXXXX...   ",
" ...XXXXXXXXXXXXXXXXooooooooXXXXXXXXXXooooooXXXXXXXXXXXXXXXX... ",
" ...XXXXXXXXXXXXXXooOOOOOOooooooooooooOOOOOOooXXXXXXXXXXXXXX... ",
" ...XXXXXXXXXXXXXXooOOOOOOooooooooooooOOOOOOooXXXXXXXXXXXXXX... ",
" .....XXXXXXXXXXXXoo++++OOOO@@@@@@@@OOOO++++ooXXXXXXXXXXXXXX... ",
" .....XXXXXXXXXXXXoo++++OOOO@@@@@@@@OOOO++++ooXXXXXXXXXXXXXX... ",
" ...XXX..XXXXXXXXXoo++++OOOO@@@@@@@@OOOO++++ooXXXXXXXXXXXXXX... ",
" ...XXXXXXXXXXXXXXoo++++OOOO@@@@@@@@OOOO++++ooXXXXX.XXXXXX..... ",
" ...XXXXXXXXXXXXXXXXooOOOOOO@@@@@@@@OOOOOOooXXXXXXX.XXXXXX..... ",
"   ...XXXXXXX..XXXXXooOOOOOO@@@@@@@@OOOOOOooXXXXXXXXXXXXX....   ",
"   ....XXXXXXXXXXXooooOOOOOOOOOOOOOOOOOOOOooooXXXXXXXXXXXX...   ",
"   ....XXXXXXXXXXXooooOOOOOOOOOOOOOOOOOOOOooooXXXXXXXXXXXX...   ",
"   ...XXXXXXXXXXXXXXooOOooOOOOOOOOOOOOooOOooXXXXXXXXXXXXX....   ",
" .....XXX.XXXXXXXXXXooOOooOOOOOOOOOOOOooOOooXXXXXXXXXXXXX...... ",
" .....XXX.XXXXXXXXooooOOOOOOOOOOOOOOOOOOOOooooXXXXXXXXXXX...... ",
" ...XXXXXXXXXXXXXXooooOOOOOOOOOOOOOOOOOOOOooooXXXXXXXXXXXX..... ",
" ...XXXXXXXXXXXXXXXXoo####OOOOOOOOOOOO####ooXXXXXXXXXX.XXX..... ",
" .....XXXXXXXXXXXXXXoo####OOOOOOOOOOOO####ooXXXXXXXXXXXXXX..... ",
" .....XXXXXXXXXXXXXXXXoooo$$$$$$$$$$$$ooooXXXXXXXXXXXXXXXX..... ",
"   ...XXXXXXXXXXXXXXXXoooo$$$$$$$$$$$$ooooXXXXXXXXXXXXXXXX..... ",
"   ...XXXXXXXXXXXXXXXXXXoo$$$$%%OO$$$$ooXXXXXXXXX..XXXXXX...... ",
"   ...XXXXXXXXXXXXXXXXXXoo$$$$%%OO$$$$ooXXXXXXXXX..XXXXXX...... ",
" ......XXX..XXXXXXXXXXoo@@OOOO%%%%OOOO@@ooXXXXXXXXXXXXXXXX...   ",
" .....XXXXXXXXXXXXXXXXoo@@OOOO%%%%OOOO@@ooXXXXXXXXXXXX.XXXXX.   ",
" .....XXXXXXXXXXXXXXXXoo@@OOOOOOOOOOOO@@ooXXXXXXXXXXXX.XXXXX.   ",
" ...XXXXXXXXXXXXXXXXXXoo@@OOOOOOOOOOOO@@ooXXXXXXXXXXXXXXXXXX... ",
" .....XXXXXXXXXXXXXXXXXXooOOOOOOOOOOOOooXXXXXXXXXXXXXXXXXXXX... ",
" .....XXXXXXXXXXXXXXXXXXooOOOOOOOOOOOOooXXXXXXXXXXXXXXXXXXXX... ",
" ...XXXXXXXXXXXXXXXXXXXXoo@@@@oooo@@@@ooXXXXXXXXXXXXXXXXXX...   ",
" .....XXXXXXXXXXXXXXXXXXoo@@@@oooo@@@@ooXXXXXXXXXXXXXXXXXX...   ",
" .....XXXXXXXXXXXXXXXXXXXXooooXXXXooooXXXXXXXXXXXXXXXXXXXX...   ",
"   ....XXXXXXXXXXXXXXXXXXXooooXXXXooooXXXXXXXXXXXXX.XXXXX...... ",
"   ...XXXXXX.XXXXXXXXXXXXXXXXXXXXXXXXXXXXXXXXXXXXXXXXXXXXX..... ",
" ......XXXXXXXXXXXXXXXXXXXXXXXXXXXXXXXXXXXXXXXXXXXXXXXXXX...... ",
" ......XXXXXXXXXXXXXXXXXXXXXXXXXXXXXXXXXXXXXXXXXXXXXXXXXX...... ",
" .....XXXXXXXXXX.XXXXXXXXXXXXXXXXXXXXXXXXXXXXXXXXXXXXXXXXX...   ",
"   ...XXXXXXXXXXXXXXXXX..XXXXXXXXXXXXX.XXXXXXXXXXXXXXXXXXX...   ",
"   ...XXXXXXXXXXXXXXXXX..XXXXXXXXXXXXX.XXXXXXXXXXXXXXXXXXX...   ",
"   ......XXXXXXXXXXXXXXXXXXXXXXXXXXXXXXXXXXXXXXX.XXX..XXX....   ",
"   ....XXXXX&..XXXXXXXXXXXXXX..XXXXXXXXXXXXXXXXXXXXXXXXXX...    ",
"   ....XXXXX&..XXXXXXXXXXXXXX..XXXXXXXXXXXXXXXXXXXXXXXXXX...    ",
"    .....XXX.**XXXXXXXXXX.XXXXXXXXX.XXX..XXXXXXXXXXXXXX.....    ",
"    ............X..XXXX......XXXX.........XXXXX.XXX.........    ",
"    ............X..XXXX......XXXX.........XXXXX.XXX.........    ",
"      ....................................................      ",
"             ..  ......     .......    ........  ...            ",
"             ..  ......     .......    ........  ...            ",
"                                                                "
};
