/* XPM */
static char * Player_xpm[] = {
"43 39 8 1",
" 	c None",
".	c #5C4E92",
"+	c #F3F2C0",
"@	c #E8B5AC",
"#	c #DDD5DE",
"$	c #F3D8C5",
"%	c #766DAA",
"&	c #EAE178",
"                                           ",
"                                           ",
"                                           ",
"                                           ",
"                                           ",
"                                           ",
"                                           ",
"                                           ",
"                                           ",
"                                           ",
"                                           ",
"               ....     ...                ",
"              .+++......+++.               ",
"              .@@++####++@@.               ",
"              .@@++####++@@.               ",
"               .+++####+++.                ",
"              ..++++++++++..               ",
"               .+.++++++.+.                ",
"              ..++++++++++..               ",
"               .$$++++++$$.                ",
"                ..%%%%%%..                 ",
"                 .%%&+%%.                  ",
"                .#++&&++#.                 ",
"                .#++++++#.                 ",
"                 .++++++.                  ",
"                 .##..##.                  ",
"                  ..  ..                   ",
"                                           ",
"                                           ",
"                                           ",
"                                           ",
"                                           ",
"                                           ",
"                                           ",
"                                           ",
"                                           ",
"                                           ",
"                                           ",
"                                           "};
