/* XPM */
static char * wall_xpm[] = {
"30 32 10 1",
" 	c None",
".	c #5F7A79",
"+	c #97BB8E",
"@	c #AED499",
"#	c #C2E09A",
"$	c #6E967C",
"%	c #90625D",
"&	c #AA7959",
"*	c #B68962",
"=	c #C49A6C",
"                              ",
"           .........          ",
"         ..+@@@@@@++.         ",
"       ..+@@@###@##@+..       ",
"      .+@@@@@###@##@@++.      ",
"     .+@###@###@@@@@@@@+.     ",
"    .++@######@@@###@@@++.    ",
"    .@@@@@##@@@@@######++.    ",
"   .+@@@@@@@@@@@@@@@###@@+.   ",
"   .+@@@@@@@@@@@@@@@@@@@@+.   ",
"   .+++@@@++@@@@@@+++@@+++.   ",
"   .+++@@@++@@@@@@+++@@++.    ",
"   .+++++++++++@@+@@@++++.    ",
"    .+++@@@+++++++++++++++.   ",
"    .+++++++++++++++++++++.   ",
"   .$++++++++++++++++++++$.   ",
"   .$$$+$$++$$$+++++$$$$$$.   ",
"   .$$$+$$++$$$+++++$$$$$$.   ",
"   .$$$$$$$$+++++$$$+++$$.    ",
"    .$$+++$$$$$$$$$$$$$$$.    ",
"    .$$$$$$$$$$$$$$$$$$$$.    ",
"     .$$$$$$$$$$$$$$$$$$.     ",
"      ..$$$$$$$$$$$$$...      ",
"        .............         ",
"           %&&&&&&%           ",
"           %*&&&&*%           ",
"           %******%           ",
"           %*=*===%           ",
"          %========%          ",
"           ========           ",
"              ==              ",
"                              "};
