/* XPM */
static char *_6058b4867a0488fc6d8cef52a260557fVTMXJozYc6VePkG[] = {
/* columns rows colors chars-per-pixel */
"64 64 17 1 ",
"  c #78A158",
". c #A4C263",
"X c #5F7A79",
"o c #97BB8E",
"O c #AED499",
"+ c #C0D470",
"@ c #C2E09A",
"# c #A8CE96",
"$ c #AACF97",
"% c #6E967C",
"& c #8DB28A",
"* c #90625D",
"= c #AA7959",
"- c #B68962",
"; c #C49A6C",
": c #BBD16E",
"> c #BDD26E",
/* pixels */
"                                                                ",
"             ............    .......   ............             ",
"             ...........XXXXXXXXXXXXXXXXXX.........             ",
"      ..................XXXXXXXXXXXXXXXXXX...............       ",
"    ................XXXXooOOOOOOOOOOOOooooXX+++.............    ",
"    ................XXXXooOOOOOOOOOOOOooooXX+++.............    ",
"   .........+..+XXXXooOOOOOO@@@@@@OO@@@@OOooXXXX+...........    ",
"    ......++++++XXXXooOOOOOO@@@@@@OO@@@@OOooXXXX++++..+.....    ",
"    ......++++XXooOOOOOOOOOO@@@@@@OO@@@@OOOOooooXX++..+.....    ",
"    .....+++++XXooOOOOOOOOOO@@@@@@OO@@@@OOOOooooXX+++++++....   ",
"   ....+++++XXooOO@@@@@@OO@@@@@@OOOOOOOOOOOOOOOOooXX++++++...   ",
"   ....+++++XXooOO@@@@@@OO@@@@@@OOOOOOOOOOOOOOOOooXX++++++...   ",
"   ......+XXooooOO@@@@@@@@@@@@OOOOOO@@@@@@OOOOOOooooXX++++..... ",
" .....++++XXooooOO@@@@@@@@@@@@OOOOOO@@@@@@OOOOOOooooXX.+++..... ",
" .....++++XXOOOOOOOOOO@@@@OOOOOOOOOO@@@@@@@@@@@@ooooXX.+++..... ",
" .....++++XXOOOOOOOOOO@@@@OOOOOOOOOO@@@@@@@@@@@@ooooXX++++++.   ",
" .....+.XXooOOOOOOOOOOOOOOOOOOOOOOOOOOOOOO@@@@@@OOOOooXX++...   ",
" ...++++XXooOOOOOOOOOOOOOOOOOOOOOOOOOOOOOO@@@@@@OOOOooXX++++... ",
" ...++++XXooOOOOOOOOOOOOOOOOOOOOOOOOOOOOOOOOOOOOOOOOooXX++++... ",
" ...++++XXooOOOOOOOOOOOOOOOOOOOOOOOOOOOOOOOOOOOOOOOOooXX++++... ",
" .....++XXooooooOOOOOOooooOOOOOOOOOOOOooooooOOOOooooooXX++++... ",
" .....++XXooooooOOOOOOooooOOOOOOOOOOOOooooooOOOOooooooXX++++... ",
" ...+++.XXooooooOOOOOOooooOOOOOOOOOO##oooooo##OOooooXX++++++... ",
" ...++++XXooooooOOOOOOooooOOOOOOOOOO##oooooo##OOooooXX++++..... ",
" ...++++XXooooooooooooooooooooooOOOOoo$$OO##ooooooooXX++++..... ",
"   ...++XXooooooooooooooooooooooOOOOoo$$OO##ooooooooXX+++....   ",
"   ....+++XXooooooOOOOOOooooooooooooooooooooooooooooooXX++...   ",
"   ....+++XXooooooOOOOOOooooooooooooooooooooooooooooooXX++...   ",
"   ...++++XXooooooooooooooooooooooooooooooooooooooooooXX+....   ",
" .....+++.XXooooooooooooooooooooooooooooooooooooooooooXX+...... ",
" .....++XX%%oooooooooooooooooooooooooooooooooooooooo%%XX+...... ",
" ...++++XX%%oooooooooooooooooooooooooooooooooooooooo%%XX++..... ",
" ...++++XX%%%%%%oo%%%%oooo%%%%%%oooooooooo%%%%%%%%%%%%XX++..... ",
" .....++XX%%%%%%oo%%%%oooo%%%%%%oooooooooo%%%%%%%%%%%%XX++..... ",
" .....++XX%%%%%%oo%%%%oo&&%%%%%%oooooooo&&%%%%%%%%%%%%XX++..... ",
"   ...++XX%%%%%%oo%%%%oo&&%%%%%%oooooooo&&%%%%%%%%%%%%XX++..... ",
"   ...++XX%%%%%%%%%%%%%%%%&&oooooooo%%%%%%&&oooo%%%%XX+++...... ",
"   ...++XX%%%%%%%%%%%%%%%%&&oooooooo%%%%%%&&oooo%%%%XX+++...... ",
" ......+++XX%%%%oooooo%%%%%%%%%%%%%%%%%%%%%%%%%%%%%%XX++++...   ",
" .....++++XX%%%%oooooo%%%%%%%%%%%%%%%%%%%%%%%%%%%%%%XX.+++++.   ",
" .....++++XX%%%%%%%%%%%%%%%%%%%%%%%%%%%%%%%%%%%%%%%%XX.+++++.   ",
" ...++++++XX%%%%%%%%%%%%%%%%%%%%%%%%%%%%%%%%%%%%%%%%XX++++++... ",
" .....++++++XX%%%%%%%%%%%%%%%%%%%%%%%%%%%%%%%%%%%%XX++++++++... ",
" .....++++++XX%%%%%%%%%%%%%%%%%%%%%%%%%%%%%%%%%%%%XX++++++++... ",
" ...++++++++++XXXX%%%%%%%%%%%%%%%%%%%%%%%%%%XXXXXX++++++++...   ",
" .....++++++++XXXX%%%%%%%%%%%%%%%%%%%%%%%%%%XXXXXX++++++++...   ",
" .....++++++++++++XXXXXXXXXXXXXXXXXXXXXXXXXX++++++++++++++...   ",
"   ....+++++++++++XXXXXXXXXXXXXXXXXXXXXXXXXX+++++++.+++++...... ",
"   ...++++++.+++++++++++**============**++++++++++++++++++..... ",
" ......+++++++++++++++++**============**+++++++++++++++++...... ",
" ......+++++++++++++++++**--========--**+++++++++++++++++...... ",
" .....++++++++++.+++++++**--========--**++++++++++++++++++...   ",
"   ...+++++++++++++++++.**------------**++++++++++++++++++...   ",
"   ...+++++++++++++++++.**------------**++++++++++++++++++...   ",
"   ......+++++++++++++++**--;;--;;;;;;**++++++++.+++..+++....   ",
"   ....+++++:..+++++++++**--;;--;;;;;;**+++++++++++++++++...    ",
"   ....+++++:..+++++++**;;;;;;;;;;;;;;;;**+++++++++++++++...    ",
"    .....+++.>>+++++++**;;;;;;;;;;;;;;;;**+++++++++++++.....    ",
"    ............+..++++.;;;;;;;;;;;;;;;;..+++++.+++.........    ",
"    ............+..++++.;;;;;;;;;;;;;;;;..+++++.+++.........    ",
"      ........................;;;;........................      ",
"             ..  ......     ..;;;;.    ........  ...            ",
"             ..  ......     .......    ........  ...            ",
"                                                                "
};
